<svg width="24" height="24" viewBox="0 0 24 24" fill="none" xmlns="http://www.w3.org/2000/svg">
<circle cx="12" cy="12" r="12" fill="#FAF7F0"/>
<path d="M11.6989 21.9285C11.4601 21.783 11.4525 21.738 11.4525 20.4827C11.4525 19.8584 11.4389 19.3474 11.4222 19.3474C11.4056 19.3474 11.2429 19.4982 11.0605 19.6824C10.8781 19.8667 10.6814 20.0425 10.6233 20.0732C10.3636 20.2105 10.0274 20.0749 9.93423 19.7954C9.84111 19.516 9.89217 19.4387 10.7084 18.6247L11.4525 17.8825V15.8973L11.2604 16.077C11.1546 16.1757 11.0225 16.268 10.9667 16.282C10.6714 16.3561 10.3574 16.1213 10.3574 15.8265C10.3574 15.7402 10.3826 15.6221 10.4133 15.5641C10.4441 15.506 10.6905 15.2389 10.9609 14.9706L11.4525 14.4826V13.9056C11.4525 13.5882 11.4371 13.3285 11.4184 13.3285C11.3996 13.3285 10.9332 13.7863 10.3819 14.3457L9.37965 15.3628L9.37959 16.8763C9.37947 18.288 9.37448 18.3979 9.30599 18.5102C9.22856 18.637 9.01461 18.7611 8.87322 18.7611C8.74723 18.7611 8.5747 18.6593 8.48327 18.5309C8.4059 18.4223 8.402 18.367 8.402 17.388V16.3591L8.04917 16.71L7.69628 17.061L7.6993 18.1195C7.70145 18.8777 7.68867 19.2078 7.65434 19.2832C7.54426 19.5245 7.14652 19.6236 6.93984 19.4611C6.74739 19.3099 6.72026 19.2031 6.72026 18.5975V18.0391L6.16295 18.5913C5.85641 18.895 5.56718 19.163 5.52019 19.1868C5.47325 19.2107 5.363 19.2301 5.27523 19.2301C5.14801 19.2301 5.08597 19.2029 4.96956 19.0963C4.83439 18.9726 4.82347 18.9463 4.82347 18.7451V18.5276L5.38078 17.9697C5.68726 17.6628 5.93808 17.3988 5.93808 17.3829C5.93808 17.3671 5.71723 17.3541 5.44729 17.3541C4.91409 17.3541 4.7986 17.3222 4.65088 17.1346C4.5512 17.008 4.54295 16.7657 4.63322 16.6131C4.76747 16.3859 4.81673 16.377 5.93936 16.377H6.96499L7.31196 16.0377C7.50278 15.8512 7.65892 15.6862 7.65892 15.6714C7.65892 15.6564 7.19578 15.6368 6.62976 15.6276C5.63468 15.6116 5.59646 15.608 5.47546 15.5219C5.23683 15.3522 5.17177 15.0922 5.31072 14.8644C5.46866 14.6056 5.46681 14.6058 7.16737 14.6361L8.6953 14.6634L9.75101 13.6051L10.8067 12.5469H9.46928L8.96158 13.0709C8.5768 13.4679 8.41914 13.6045 8.31057 13.6344C7.93706 13.7374 7.59979 13.4089 7.70139 13.0411C7.72155 12.9682 7.80972 12.8271 7.89732 12.7276L8.05666 12.5469H6.06286L5.35196 13.2867C4.64798 14.0193 4.53151 14.1101 4.29538 14.1101C4.13214 14.1101 3.9311 13.9531 3.87446 13.7816C3.79401 13.5377 3.85709 13.4081 4.27737 12.9546L4.65524 12.5469H3.55503C2.3718 12.5469 2.29129 12.5353 2.11185 12.3408C1.91237 12.1244 1.98975 11.7491 2.26416 11.602C2.38418 11.5377 2.50686 11.5307 3.50042 11.5307H4.60348L4.23996 11.1691C3.86267 10.7939 3.79708 10.6712 3.85093 10.4423C3.88509 10.2969 4.05216 10.1296 4.20522 10.0875C4.4729 10.0137 4.57717 10.0825 5.33407 10.8315L6.04026 11.5307H7.98086L7.83941 11.3742C7.49732 10.9959 7.75843 10.4598 8.2526 10.5261C8.39712 10.5454 8.46805 10.601 8.9075 11.0393L9.40033 11.5307H10.7676L9.69252 10.4558L8.61757 9.38104H7.1076C5.60018 9.38104 5.59739 9.38091 5.46471 9.29187C5.30764 9.18641 5.20749 8.94499 5.25019 8.77487C5.26576 8.71288 5.34011 8.60407 5.41551 8.53309L5.55249 8.40393H7.63766L7.28727 8.0522L6.93693 7.70041H5.86663C4.84548 7.70041 4.79111 7.69668 4.68219 7.61914C4.55376 7.52789 4.45187 7.35534 4.45187 7.22944C4.45187 7.08654 4.57147 6.88455 4.70508 6.80207C4.81748 6.73265 4.89939 6.7233 5.3946 6.7233H5.95656L5.40395 6.16647C5.10003 5.86007 4.83189 5.57098 4.80801 5.52403C4.7842 5.47707 4.76474 5.36693 4.76474 5.27928C4.76474 5.15223 4.79192 5.09008 4.89858 4.9737C5.02248 4.83864 5.04874 4.82776 5.25007 4.82776H5.46768L6.02597 5.38476C6.33303 5.69099 6.59728 5.94159 6.61314 5.94159C6.629 5.94159 6.64195 5.71137 6.64195 5.42981C6.64195 4.85432 6.67977 4.73754 6.90039 4.63295C7.14507 4.51692 7.4042 4.59229 7.54309 4.81993C7.61362 4.93549 7.61942 5.02243 7.6196 5.96196L7.61966 6.97907L7.96262 7.32012C8.15129 7.50777 8.31679 7.66134 8.33038 7.66134C8.34397 7.66134 8.36123 7.19877 8.36872 6.63355C8.38074 5.72327 8.39033 5.59356 8.45289 5.49831C8.53962 5.36621 8.742 5.23853 8.86527 5.23824C9.01624 5.23795 9.21665 5.35523 9.30233 5.49372C9.38116 5.62118 9.38226 5.65561 9.35752 7.16054L9.33225 8.69714L10.3923 9.75198L11.4525 10.8071V9.50648L10.9606 9.04533C10.4341 8.55174 10.3574 8.44761 10.3574 8.22815C10.3574 7.9344 10.5559 7.73948 10.8551 7.73948C11.0141 7.73948 11.1201 7.79541 11.3253 7.98753L11.4525 8.10659V6.11551L10.7234 5.41466C10.2753 4.98375 9.9728 4.66161 9.93812 4.57873C9.78534 4.21347 10.1182 3.82646 10.5104 3.91352C10.6066 3.93477 10.749 4.04778 11.0195 4.31703C11.2261 4.52268 11.408 4.69106 11.4238 4.69106C11.4395 4.69106 11.4525 4.16769 11.4526 3.52818C11.4526 2.44407 11.4578 2.35699 11.529 2.24033C11.7204 1.92666 12.131 1.91865 12.3489 2.22442C12.4268 2.33377 12.4302 2.38672 12.4302 3.49521C12.4302 4.1313 12.443 4.65199 12.4588 4.65199C12.4745 4.65199 12.6476 4.49232 12.8435 4.29741C13.2414 3.90139 13.3665 3.84312 13.6263 3.93227C13.8828 4.0205 14.0073 4.27887 13.9203 4.54216C13.8917 4.62835 13.634 4.91509 13.1538 5.39446L12.4302 6.11684V8.05829L12.5953 7.91694C12.7877 7.75245 12.8827 7.72166 13.1071 7.75184C13.4725 7.80071 13.6133 8.22088 13.3729 8.54464C13.3107 8.62845 13.0731 8.88143 12.845 9.10669L12.4302 9.51641V10.8852L14.5811 8.73667V7.20077C14.5811 5.75534 14.5857 5.65613 14.6574 5.51555C14.7357 5.36238 14.9282 5.23824 15.0876 5.23824C15.2177 5.23824 15.3871 5.34142 15.4874 5.48182C15.5765 5.60661 15.5788 5.6325 15.5906 6.65491C15.5972 7.22982 15.6145 7.70041 15.629 7.70041C15.6434 7.70041 15.8095 7.5469 15.9982 7.35919L16.3411 7.01814V6.00701C16.3411 4.87547 16.3555 4.79999 16.6021 4.64781C16.8549 4.49167 17.1761 4.61366 17.3043 4.91443C17.34 4.99807 17.358 5.20085 17.358 5.51973V5.99929L18.5322 4.82776H18.7499C18.9513 4.82776 18.9774 4.83864 19.1014 4.9737C19.2081 5.09008 19.2353 5.15223 19.2353 5.27928C19.2353 5.36693 19.2158 5.47707 19.192 5.52403C19.1681 5.57098 18.9026 5.8574 18.6021 6.16038L18.0556 6.71111L18.4168 6.73682C18.6155 6.75081 18.8553 6.76237 18.9499 6.76237C19.1666 6.76237 19.3345 6.84801 19.4323 7.00862C19.5757 7.24357 19.4933 7.55316 19.2467 7.70546C19.1125 7.7884 19.0913 7.78945 18.0678 7.7627L17.0255 7.73547L16.694 8.06973L16.3624 8.40393H17.383C18.3585 8.40393 18.408 8.40754 18.5072 8.48554C18.7292 8.66014 18.7874 8.94162 18.648 9.16706C18.4938 9.41624 18.4663 9.4201 16.8238 9.4201H15.3433L14.2879 10.4754L13.2325 11.5307H14.5628L15.0121 11.0784C15.2591 10.8297 15.5087 10.6011 15.5668 10.5704C15.9177 10.3846 16.3561 10.7024 16.2834 11.0898C16.2697 11.1629 16.1958 11.292 16.1192 11.3767L15.9801 11.5307H17.9151L18.6507 10.8251C19.1441 10.3518 19.4282 10.1078 19.5138 10.0832C19.7815 10.0065 20.0565 10.1687 20.1156 10.4381C20.166 10.6677 20.1005 10.7926 19.7315 11.1691L19.3773 11.5307H20.4899C21.4929 11.5307 21.6158 11.5377 21.7358 11.602C22.0102 11.7491 22.0877 12.1244 21.8881 12.3408C21.7083 12.5358 21.6299 12.5469 20.4233 12.5469H19.3013L19.6957 12.9519C20.123 13.3908 20.1833 13.513 20.0984 13.7697C20.0149 14.0221 19.7987 14.1438 19.5244 14.0924C19.4073 14.0705 19.2598 13.9394 18.6393 13.3064L17.8945 12.5469H15.8947L16.0598 12.715C16.2422 12.9007 16.3144 13.0865 16.2783 13.2782C16.2308 13.5317 15.927 13.7108 15.6665 13.6388C15.58 13.6148 15.3706 13.4345 15.0119 13.0752L14.4845 12.5469H13.1934L14.2293 13.5825L15.265 14.6183H16.8142C18.3619 14.6183 18.3634 14.6183 18.4956 14.7074C18.7294 14.8648 18.7918 15.1171 18.6531 15.3444C18.5109 15.5774 18.4147 15.5953 17.3033 15.5953C16.7526 15.5953 16.302 15.6081 16.302 15.6239C16.302 15.6395 16.4557 15.8067 16.6434 15.9952L16.9849 16.3379L18.0025 16.338C18.9421 16.3381 19.0297 16.344 19.1452 16.4143C19.3162 16.5185 19.4024 16.6631 19.4024 16.846C19.4024 17.0288 19.3162 17.1733 19.1452 17.2776C19.0382 17.3427 18.9466 17.3538 18.5123 17.3539L18.0043 17.354L18.5905 17.9407L19.1765 18.5275V18.7449C19.1765 18.9462 19.1657 18.9724 19.0305 19.0962C18.9141 19.2028 18.8521 19.23 18.7248 19.23C18.637 19.23 18.5268 19.2105 18.4798 19.1867C18.4328 19.1629 18.1463 18.8975 17.8431 18.5971L17.2917 18.0509L17.2664 18.318C17.2526 18.4649 17.2411 18.7047 17.2409 18.8509C17.2407 19.1409 17.1807 19.3007 17.0368 19.3949C16.7998 19.5502 16.5057 19.5 16.3469 19.2772C16.2659 19.1635 16.2629 19.1212 16.2629 18.0896V17.02L15.9395 16.6985C15.7615 16.5216 15.6075 16.3769 15.5972 16.3769C15.587 16.3769 15.5785 16.8298 15.5785 17.3833C15.5785 18.3743 15.5772 18.3916 15.4875 18.5173C15.318 18.7547 15.0934 18.8161 14.8574 18.6895C14.5831 18.5426 14.5811 18.5296 14.5811 16.8462V15.3406L13.5348 14.2954C12.9592 13.7206 12.4753 13.2502 12.4592 13.2502C12.4433 13.2502 12.4302 13.5364 12.4302 13.886V14.5217L12.9022 14.9901C13.1618 15.2476 13.3995 15.5059 13.4303 15.564C13.5595 15.8078 13.4596 16.1476 13.2306 16.2432C12.9864 16.3451 12.7847 16.2961 12.5896 16.0875C12.5374 16.0317 12.4802 15.9861 12.4625 15.9861C12.4448 15.9861 12.4302 16.4204 12.4302 16.951V17.916L13.1515 18.6414C13.5482 19.0403 13.8923 19.4188 13.9163 19.4823C14.0287 19.7815 13.796 20.129 13.4828 20.129C13.2643 20.129 13.1604 20.0636 12.8027 19.7019C12.6311 19.5283 12.477 19.3864 12.4604 19.3864C12.4437 19.3864 12.4302 19.8982 12.4302 20.5235C12.4302 21.6122 12.4267 21.6655 12.3489 21.7748C12.1868 22.0022 11.9225 22.0648 11.6989 21.9285Z" fill="#A6154F"/>
</svg>
