<svg width="276" height="118" viewBox="0 0 276 118" fill="none" xmlns="http://www.w3.org/2000/svg">
<g clip-path="url(#clip0_8160_2873)">
<rect width="276" height="118" fill="white"/>
<path d="M4.36816 15.1709C2.8916 15.1709 1.71582 14.3711 1.10742 12.9492C0.779297 12.1904 0.62207 11.3018 0.62207 10.2354C0.62207 6.91309 2.03711 4.96484 4.4502 4.96484C5.71484 4.96484 6.81543 5.55273 7.36914 6.5166C7.49219 6.72852 7.54688 6.89941 7.54688 7.09766C7.54688 7.40527 7.30762 7.62402 6.97949 7.62402C6.7334 7.62402 6.5625 7.49414 6.34375 7.14551C5.87207 6.40039 5.26367 6.05176 4.43652 6.05176C2.80957 6.05176 1.87305 7.48047 1.81152 10.0508V10.1396H1.83203C2.23535 9.25098 3.24707 8.54004 4.58691 8.54004C6.4668 8.54004 7.86133 9.92773 7.86133 11.8008C7.86133 13.749 6.3916 15.1709 4.36816 15.1709ZM4.35449 14.0771C5.6123 14.0771 6.61035 13.0859 6.61035 11.8418C6.61035 10.5498 5.68066 9.62012 4.375 9.62012C3.06934 9.62012 2.10547 10.5498 2.10547 11.8076C2.10547 13.0723 3.08984 14.0771 4.35449 14.0771ZM12.6328 15.1641C10.3291 15.1641 8.99609 13.1816 8.99609 10.0645C8.99609 6.97461 10.3428 4.97168 12.6328 4.97168C14.9229 4.97168 16.2559 6.96094 16.2559 10.0576C16.2559 13.1748 14.9297 15.1641 12.6328 15.1641ZM12.6328 14.0908C14.1709 14.0908 15.0186 12.5254 15.0186 10.0645C15.0186 7.6377 14.1572 6.05176 12.6328 6.05176C11.1084 6.05176 10.2334 7.65137 10.2334 10.0576C10.2334 12.5186 11.0879 14.0908 12.6328 14.0908Z" fill="#1C1D1F"/>
<path d="M1.36035 49.2754C0.998047 49.2754 0.765625 49.0771 0.765625 48.7695C0.765625 48.5166 0.820312 48.4072 1.11426 48.0996L4.27246 44.8047C5.59863 43.417 5.91309 42.8906 5.91309 42.0635C5.91309 41.0586 5.14062 40.3203 4.08105 40.3203C3.01465 40.3203 2.26953 40.874 1.93457 41.9336C1.85254 42.1865 1.71582 42.3643 1.38086 42.3643C1.01855 42.3643 0.813477 42.1387 0.813477 41.8174C0.813477 41.7285 0.820312 41.6533 0.833984 41.5713C0.977539 40.5596 2.06445 39.2471 4.08105 39.2471C5.8584 39.2471 7.14355 40.3955 7.14355 41.9883C7.14355 43.0684 6.65137 43.8818 4.96289 45.6113L2.48828 48.1543V48.1816H6.79492C7.14355 48.1816 7.37598 48.4004 7.37598 48.7285C7.37598 49.0566 7.14355 49.2754 6.79492 49.2754H1.36035ZM12.1816 49.4395C9.87793 49.4395 8.54492 47.457 8.54492 44.3398C8.54492 41.25 9.8916 39.2471 12.1816 39.2471C14.4717 39.2471 15.8047 41.2363 15.8047 44.333C15.8047 47.4502 14.4785 49.4395 12.1816 49.4395ZM12.1816 48.3662C13.7197 48.3662 14.5674 46.8008 14.5674 44.3398C14.5674 41.9131 13.7061 40.3271 12.1816 40.3271C10.6572 40.3271 9.78223 41.9268 9.78223 44.333C9.78223 46.7939 10.6367 48.3662 12.1816 48.3662Z" fill="#1C1D1F"/>
<path d="M1.24414 80.1055C0.90918 80.1055 0.65625 79.8867 0.65625 79.5518C0.65625 79.2168 0.90918 78.998 1.24414 78.998H4.75781C5.09277 78.998 5.3457 79.2168 5.3457 79.5518C5.3457 79.8867 5.09277 80.1055 4.75781 80.1055H1.24414ZM7.3623 83.5508C7 83.5508 6.76758 83.3525 6.76758 83.0449C6.76758 82.792 6.82227 82.6826 7.11621 82.375L10.2744 79.0801C11.6006 77.6924 11.915 77.166 11.915 76.3389C11.915 75.334 11.1426 74.5957 10.083 74.5957C9.0166 74.5957 8.27148 75.1494 7.93652 76.209C7.85449 76.4619 7.71777 76.6396 7.38281 76.6396C7.02051 76.6396 6.81543 76.4141 6.81543 76.0928C6.81543 76.0039 6.82227 75.9287 6.83594 75.8467C6.97949 74.835 8.06641 73.5225 10.083 73.5225C11.8604 73.5225 13.1455 74.6709 13.1455 76.2637C13.1455 77.3438 12.6533 78.1572 10.9648 79.8867L8.49023 82.4297V82.457H12.7969C13.1455 82.457 13.3779 82.6758 13.3779 83.0039C13.3779 83.332 13.1455 83.5508 12.7969 83.5508H7.3623ZM4.25195 103.715C1.94824 103.715 0.615234 101.732 0.615234 98.6152C0.615234 95.5254 1.96191 93.5225 4.25195 93.5225C6.54199 93.5225 7.875 95.5117 7.875 98.6084C7.875 101.726 6.54883 103.715 4.25195 103.715ZM4.25195 102.642C5.79004 102.642 6.6377 101.076 6.6377 98.6152C6.6377 96.1885 5.77637 94.6025 4.25195 94.6025C2.72754 94.6025 1.85254 96.2021 1.85254 98.6084C1.85254 101.069 2.70703 102.642 4.25195 102.642Z" fill="#1C1D1F"/>
<path d="M1.24414 114.381C0.90918 114.381 0.65625 114.163 0.65625 113.828C0.65625 113.493 0.90918 113.274 1.24414 113.274H4.75781C5.09277 113.274 5.3457 113.493 5.3457 113.828C5.3457 114.163 5.09277 114.381 4.75781 114.381H1.24414ZM10.3701 117.998C8.89355 117.998 7.71777 117.198 7.10938 115.776C6.78125 115.017 6.62402 114.128 6.62402 113.062C6.62402 109.74 8.03906 107.792 10.4521 107.792C11.7168 107.792 12.8174 108.379 13.3711 109.343C13.4941 109.555 13.5488 109.726 13.5488 109.924C13.5488 110.232 13.3096 110.451 12.9814 110.451C12.7354 110.451 12.5645 110.321 12.3457 109.972C11.874 109.227 11.2656 108.878 10.4385 108.878C8.81152 108.878 7.875 110.307 7.81348 112.877V112.966H7.83398C8.2373 112.078 9.24902 111.367 10.5889 111.367C12.4688 111.367 13.8633 112.754 13.8633 114.627C13.8633 116.576 12.3936 117.998 10.3701 117.998ZM10.3564 116.904C11.6143 116.904 12.6123 115.913 12.6123 114.668C12.6123 113.376 11.6826 112.447 10.377 112.447C9.07129 112.447 8.10742 113.376 8.10742 114.634C8.10742 115.899 9.0918 116.904 10.3564 116.904ZM4.25195 137.991C1.94824 137.991 0.615234 136.008 0.615234 132.891C0.615234 129.801 1.96191 127.798 4.25195 127.798C6.54199 127.798 7.875 129.788 7.875 132.884C7.875 136.001 6.54883 137.991 4.25195 137.991ZM4.25195 136.917C5.79004 136.917 6.6377 135.352 6.6377 132.891C6.6377 130.464 5.77637 128.878 4.25195 128.878C2.72754 128.878 1.85254 130.478 1.85254 132.884C1.85254 135.345 2.70703 136.917 4.25195 136.917Z" fill="#1C1D1F"/>
<g clip-path="url(#clip1_8160_2873)">
<rect width="247" height="118" transform="translate(29)" fill="white"/>
<rect x="29.5" y="0.5" width="246" height="105" stroke="#F1F1F1" stroke-dasharray="2 2"/>
<path d="M29 35.3335H276" stroke="#F1F1F1" stroke-dasharray="2 2"/>
<path d="M29 70.6665H276" stroke="#F1F1F1" stroke-dasharray="2 2"/>
<path d="M92.4663 0L92.4663 104.896" stroke="#F1F1F1" stroke-dasharray="2 2"/>
<path d="M154.216 0L154.216 104.896" stroke="#F1F1F1" stroke-dasharray="2 2"/>
<path d="M215.966 0L215.966 104.896" stroke="#F1F1F1" stroke-dasharray="2 2"/>
<rect x="30.7148" y="84.8828" width="10.2917" height="20.5899" fill="#E63B70"/>
<rect x="30.7148" y="79.3916" width="10.2917" height="5.49063" fill="#798DE3"/>
<rect x="30.7148" y="66.3516" width="10.2917" height="13.0403" fill="#798DE3"/>
<rect x="43.5806" y="73.8242" width="9.81554" height="31.6474" fill="#E63B70"/>
<rect x="43.5806" y="65.3848" width="9.81554" height="8.43931" fill="#798DE3"/>
<rect x="43.5806" y="45.3418" width="9.81554" height="20.0434" fill="#798DE3"/>
<rect x="55.8491" y="64.5137" width="9.81554" height="40.959" fill="#E63B70"/>
<rect x="55.8491" y="53.5898" width="9.81554" height="10.9224" fill="#798DE3"/>
<rect x="55.8491" y="27.6504" width="9.81554" height="25.9407" fill="#798DE3"/>
<rect x="68.1211" y="49.9639" width="9.81554" height="55.5084" fill="#E63B70"/>
<rect x="68.1211" y="35.1611" width="9.81554" height="14.8022" fill="#798DE3"/>
<rect x="68.1211" y="0.00585938" width="9.81554" height="35.1553" fill="#798DE3"/>
<rect x="80.3877" y="69.75" width="9.81554" height="35.7212" fill="#E63B70"/>
<rect x="80.3877" y="60.2246" width="9.81554" height="9.52566" fill="#798DE3"/>
<rect x="80.3877" y="37.6016" width="9.81554" height="22.6234" fill="#798DE3"/>
<rect x="91.8379" y="84.8828" width="9.81554" height="20.5899" fill="#E63B70"/>
<rect x="91.8379" y="79.3916" width="9.81554" height="5.49063" fill="#798DE3"/>
<rect x="91.8379" y="66.3516" width="9.81554" height="13.0403" fill="#798DE3"/>
<rect x="104.109" y="73.8242" width="9.81554" height="31.6474" fill="#E63B70"/>
<rect x="104.109" y="65.3857" width="9.81554" height="8.43931" fill="#798DE3"/>
<rect x="104.109" y="45.3418" width="9.81554" height="20.0434" fill="#798DE3"/>
<rect x="116.379" y="64.5137" width="9.81554" height="40.959" fill="#E63B70"/>
<rect x="116.379" y="53.5898" width="9.81554" height="10.9224" fill="#798DE3"/>
<rect x="116.379" y="27.6504" width="9.81554" height="25.9407" fill="#798DE3"/>
<rect x="128.648" y="49.9639" width="9.81554" height="55.5084" fill="#E63B70"/>
<rect x="128.648" y="35.1611" width="9.81554" height="14.8022" fill="#798DE3"/>
<rect x="128.648" y="0.00585938" width="9.81554" height="35.1553" fill="#798DE3"/>
<rect x="140.92" y="69.75" width="9.81554" height="35.7212" fill="#E63B70"/>
<rect x="140.92" y="60.2246" width="9.81554" height="9.52566" fill="#798DE3"/>
<rect x="140.92" y="37.6016" width="9.81554" height="22.6234" fill="#798DE3"/>
<rect x="153.187" y="84.8828" width="9.81554" height="20.5899" fill="#E63B70"/>
<rect x="153.187" y="79.3916" width="9.81554" height="5.49063" fill="#798DE3"/>
<rect x="153.187" y="66.3516" width="9.81554" height="13.0403" fill="#798DE3"/>
<rect x="165.455" y="73.8242" width="9.81554" height="31.6474" fill="#E63B70"/>
<rect x="165.455" y="65.3857" width="9.81554" height="8.43931" fill="#798DE3"/>
<rect x="165.455" y="45.3418" width="9.81554" height="20.0434" fill="#798DE3"/>
<rect x="177.727" y="64.5137" width="9.81554" height="40.959" fill="#E63B70"/>
<rect x="177.727" y="53.5898" width="9.81554" height="10.9224" fill="#798DE3"/>
<rect x="177.727" y="27.6504" width="9.81554" height="25.9407" fill="#798DE3"/>
<rect x="189.995" y="49.9639" width="9.81554" height="55.5084" fill="#E63B70"/>
<rect x="189.995" y="35.1611" width="9.81554" height="14.8022" fill="#798DE3"/>
<rect x="189.995" y="0.00585938" width="9.81554" height="35.1553" fill="#798DE3"/>
<rect x="202.262" y="69.75" width="9.81554" height="35.7212" fill="#E63B70"/>
<rect x="202.262" y="60.2246" width="9.81554" height="9.52566" fill="#798DE3"/>
<rect x="202.262" y="37.6016" width="9.81554" height="22.6234" fill="#798DE3"/>
<rect x="214.534" y="84.8828" width="9.81554" height="20.5899" fill="#E63B70"/>
<rect x="214.534" y="79.3916" width="9.81554" height="5.49063" fill="#798DE3"/>
<rect x="214.534" y="66.3516" width="9.81554" height="13.0403" fill="#798DE3"/>
<rect x="226.802" y="73.8242" width="9.81554" height="31.6474" fill="#E63B70"/>
<rect x="226.802" y="65.3857" width="9.81554" height="8.43931" fill="#798DE3"/>
<rect x="226.802" y="45.3418" width="9.81554" height="20.0434" fill="#798DE3"/>
<rect x="239.072" y="64.5137" width="9.81554" height="40.959" fill="#E63B70"/>
<rect x="239.072" y="53.5898" width="9.81554" height="10.9224" fill="#798DE3"/>
<rect x="239.072" y="27.6504" width="9.81554" height="25.9407" fill="#798DE3"/>
<rect x="251.344" y="49.9639" width="9.81554" height="55.5084" fill="#E63B70"/>
<rect x="251.344" y="35.1611" width="9.81554" height="14.8022" fill="#798DE3"/>
<rect x="251.344" y="0.00585938" width="9.81554" height="35.1553" fill="#798DE3"/>
<rect x="263.611" y="69.75" width="9.81554" height="35.7212" fill="#E63B70"/>
<rect x="263.611" y="60.2246" width="9.81554" height="9.52566" fill="#798DE3"/>
<rect x="263.611" y="37.6016" width="9.81554" height="22.6234" fill="#798DE3"/>
</g>
</g>
<defs>
<clipPath id="clip0_8160_2873">
<rect width="276" height="118" fill="white"/>
</clipPath>
<clipPath id="clip1_8160_2873">
<rect width="247" height="118" fill="white" transform="translate(29)"/>
</clipPath>
</defs>
</svg>
