<svg width="148" height="148" viewBox="0 0 148 148" fill="none" xmlns="http://www.w3.org/2000/svg">
<path d="M8.7895e-06 74C7.45168e-06 58.6971 4.7443 43.7705 13.5795 31.2757C22.4148 18.7809 34.9064 9.33261 49.3343 4.23182C63.7621 -0.868981 79.4165 -1.37135 94.1417 2.7939C108.867 6.95914 121.939 15.5871 131.557 27.4897L114.39 41.362C107.64 33.0095 98.4674 26.955 88.1342 24.0321C77.801 21.1092 66.8157 21.4617 56.6912 25.0411C46.5666 28.6205 37.8008 35.2508 31.6008 44.0188C25.4007 52.7868 22.0715 63.2614 22.0715 74L8.7895e-06 74Z" fill="#F89C52"/>
<path d="M131.541 27.4707C141.508 39.7961 147.254 54.996 147.932 70.8323C148.611 86.6686 144.186 102.304 135.311 115.437C126.435 128.57 113.577 138.505 98.6295 143.781C83.6824 149.057 67.4363 149.393 52.2834 144.742L58.7607 123.642C69.394 126.906 80.7945 126.67 91.2834 122.968C101.772 119.266 110.795 112.294 117.024 103.078C123.252 93.8621 126.357 82.89 125.881 71.7771C125.405 60.6642 121.373 49.9979 114.379 41.3487L131.541 27.4707Z" fill="#798DE3"/>
<path d="M54.6771 145.433C38.7352 141.12 24.6941 131.599 14.7886 118.385C4.88308 105.17 -0.317373 89.0222 0.0149928 72.5108L22.082 72.955C21.8488 84.5416 25.4981 95.8734 32.4492 105.146C39.4002 114.419 49.2534 121.101 60.4404 124.127L54.6771 145.433Z" fill="#E63B70"/>
<path d="M55.9229 21.1641C54.4531 21.1641 53.3867 20.6377 52.792 19.626C52.6348 19.3525 52.5664 19.1064 52.5664 18.8398C52.5664 18.498 52.7783 18.2656 53.1338 18.2656C53.4141 18.2656 53.5713 18.416 53.7012 18.751C54.0293 19.5986 54.7334 20.0977 55.9229 20.0977C57.2217 20.0977 58.0898 19.3594 58.0967 18.3271C58.1035 17.1104 57.2354 16.4268 55.8477 16.4268H55.0615C54.7334 16.4268 54.5078 16.2148 54.5078 15.9072C54.5078 15.5996 54.7334 15.3877 55.0615 15.3877H55.793C56.9688 15.3877 57.7891 14.6631 57.7891 13.6787C57.7891 12.7012 57.1738 12.0381 55.9092 12.0381C54.8223 12.0381 54.2275 12.4961 53.8721 13.3916C53.749 13.7471 53.626 13.877 53.3184 13.877C52.9697 13.877 52.7715 13.6719 52.7715 13.3164C52.7715 13.0361 52.833 12.79 52.9766 12.5234C53.4961 11.5391 54.542 10.9717 55.9092 10.9717C57.8848 10.9717 59.0264 12.1064 59.0264 13.5146C59.0264 14.7383 58.1719 15.5791 56.9346 15.8389V15.8662C58.3701 15.9893 59.3477 16.8848 59.3477 18.2861C59.3477 19.9814 57.8574 21.1641 55.9229 21.1641ZM64.2764 21.1641C62.834 21.1641 61.6172 20.4463 61.1523 19.332C61.0635 19.1201 61.0088 18.9287 61.0088 18.6758C61.0088 18.3271 61.2344 18.1016 61.583 18.1016C61.8838 18.1016 62.0479 18.2383 62.1572 18.5869C62.458 19.5439 63.2305 20.084 64.3037 20.084C65.6299 20.084 66.5596 19.1475 66.5596 17.8076C66.5596 16.5088 65.6162 15.5859 64.2969 15.5859C63.6201 15.5859 62.9912 15.8389 62.5811 16.2764C62.1436 16.7412 62.041 16.8027 61.7334 16.8027C61.3506 16.8027 61.1387 16.5225 61.1387 16.167C61.1387 16.1123 61.1387 16.0713 61.1455 16.0098L61.4941 12.0996C61.5557 11.4092 61.877 11.1357 62.6016 11.1357H66.7236C67.0723 11.1357 67.3047 11.3545 67.3047 11.6826C67.3047 12.0107 67.0723 12.2295 66.7236 12.2295H62.5947L62.2803 15.4697H62.3076C62.752 14.8682 63.5654 14.5264 64.5293 14.5264C66.4365 14.5264 67.79 15.873 67.79 17.7734C67.79 19.7627 66.3408 21.1641 64.2764 21.1641ZM70.5312 21.123C70.2646 21.123 70.0664 20.959 70.0664 20.7129C70.0664 20.5898 70.1006 20.4873 70.1758 20.3848L73.3818 15.7979L76.499 11.3066C76.6631 11.0674 76.7793 11.0127 76.9707 11.0127C77.2031 11.0127 77.4082 11.1836 77.4082 11.416C77.4082 11.5391 77.3809 11.6348 77.3057 11.7373L74.1953 16.208L70.9824 20.8359C70.832 21.0547 70.7227 21.123 70.5312 21.123ZM70.6338 16.0234C69.4307 16.0234 68.7061 15.0664 68.7061 13.5215C68.7061 11.9834 69.4375 11.0332 70.6338 11.0332C71.8301 11.0332 72.5615 11.9766 72.5615 13.5215C72.5615 15.0596 71.8369 16.0234 70.6338 16.0234ZM70.6338 15.251C71.2422 15.251 71.5908 14.6289 71.5908 13.5215C71.5908 12.4209 71.2354 11.8057 70.6338 11.8057C70.0322 11.8057 69.6768 12.4277 69.6768 13.5215C69.6768 14.6289 70.0254 15.251 70.6338 15.251ZM76.8408 21.1025C75.6377 21.1025 74.9131 20.1455 74.9131 18.6006C74.9131 17.0625 75.6445 16.1123 76.8408 16.1123C78.0371 16.1123 78.7686 17.0557 78.7686 18.6006C78.7686 20.1387 78.0439 21.1025 76.8408 21.1025ZM76.8408 20.3301C77.4492 20.3301 77.7979 19.708 77.7979 18.6006C77.7979 17.5 77.4424 16.8848 76.8408 16.8848C76.2393 16.8848 75.8838 17.5068 75.8838 18.6006C75.8838 19.708 76.2324 20.3301 76.8408 20.3301Z" fill="white"/>
<path d="M122.768 119.027C121.326 119.027 120.109 118.31 119.644 117.195C119.555 116.983 119.5 116.792 119.5 116.539C119.5 116.19 119.726 115.965 120.075 115.965C120.375 115.965 120.539 116.102 120.649 116.45C120.95 117.407 121.722 117.947 122.795 117.947C124.121 117.947 125.051 117.011 125.051 115.671C125.051 114.372 124.108 113.449 122.788 113.449C122.112 113.449 121.483 113.702 121.073 114.14C120.635 114.604 120.533 114.666 120.225 114.666C119.842 114.666 119.63 114.386 119.63 114.03C119.63 113.976 119.63 113.935 119.637 113.873L119.986 109.963C120.047 109.272 120.369 108.999 121.093 108.999H125.215C125.564 108.999 125.796 109.218 125.796 109.546C125.796 109.874 125.564 110.093 125.215 110.093H121.086L120.772 113.333H120.799C121.244 112.731 122.057 112.39 123.021 112.39C124.928 112.39 126.282 113.736 126.282 115.637C126.282 117.626 124.832 119.027 122.768 119.027ZM131.019 119.027C128.715 119.027 127.382 117.045 127.382 113.928C127.382 110.838 128.729 108.835 131.019 108.835C133.309 108.835 134.642 110.824 134.642 113.921C134.642 117.038 133.316 119.027 131.019 119.027ZM131.019 117.954C132.557 117.954 133.405 116.389 133.405 113.928C133.405 111.501 132.543 109.915 131.019 109.915C129.494 109.915 128.619 111.515 128.619 113.921C128.619 116.382 129.474 117.954 131.019 117.954ZM123.711 138.986C123.445 138.986 123.246 138.822 123.246 138.576C123.246 138.453 123.281 138.351 123.356 138.248L126.562 133.661L129.679 129.17C129.843 128.931 129.959 128.876 130.151 128.876C130.383 128.876 130.588 129.047 130.588 129.279C130.588 129.402 130.561 129.498 130.486 129.601L127.375 134.071L124.162 138.699C124.012 138.918 123.903 138.986 123.711 138.986ZM123.814 133.887C122.611 133.887 121.886 132.93 121.886 131.385C121.886 129.847 122.618 128.896 123.814 128.896C125.01 128.896 125.742 129.84 125.742 131.385C125.742 132.923 125.017 133.887 123.814 133.887ZM123.814 133.114C124.422 133.114 124.771 132.492 124.771 131.385C124.771 130.284 124.415 129.669 123.814 129.669C123.212 129.669 122.857 130.291 122.857 131.385C122.857 132.492 123.205 133.114 123.814 133.114ZM130.021 138.966C128.818 138.966 128.093 138.009 128.093 136.464C128.093 134.926 128.825 133.976 130.021 133.976C131.217 133.976 131.949 134.919 131.949 136.464C131.949 138.002 131.224 138.966 130.021 138.966ZM130.021 138.193C130.629 138.193 130.978 137.571 130.978 136.464C130.978 135.363 130.622 134.748 130.021 134.748C129.419 134.748 129.064 135.37 129.064 136.464C129.064 137.571 129.412 138.193 130.021 138.193Z" fill="white"/>
<path d="M15.3792 118.986C15.0306 118.986 14.7845 118.727 14.7845 118.351V110.346H14.7572L12.9115 111.638C12.7748 111.733 12.6449 111.781 12.4945 111.781C12.2074 111.781 12.0091 111.576 12.0091 111.275C12.0091 111.057 12.0912 110.913 12.3509 110.729L14.4632 109.218C14.846 108.944 15.0101 108.876 15.2904 108.876C15.7142 108.876 15.974 109.136 15.974 109.566V118.351C15.974 118.727 15.7279 118.986 15.3792 118.986ZM21.8734 119.027C20.431 119.027 19.2142 118.31 18.7494 117.195C18.6605 116.983 18.6058 116.792 18.6058 116.539C18.6058 116.19 18.8314 115.965 19.18 115.965C19.4808 115.965 19.6449 116.102 19.7542 116.45C20.055 117.407 20.8275 117.947 21.9007 117.947C23.2269 117.947 24.1566 117.011 24.1566 115.671C24.1566 114.372 23.2132 113.449 21.8939 113.449C21.2171 113.449 20.5882 113.702 20.1781 114.14C19.7406 114.604 19.638 114.666 19.3304 114.666C18.9476 114.666 18.7357 114.386 18.7357 114.03C18.7357 113.976 18.7357 113.935 18.7425 113.873L19.0912 109.963C19.1527 109.272 19.474 108.999 20.1986 108.999H24.3207C24.6693 108.999 24.9017 109.218 24.9017 109.546C24.9017 109.874 24.6693 110.093 24.3207 110.093H20.1917L19.8773 113.333H19.9046C20.349 112.731 21.1624 112.39 22.1263 112.39C24.0335 112.39 25.3871 113.736 25.3871 115.637C25.3871 117.626 23.9378 119.027 21.8734 119.027ZM28.1283 118.986C27.8617 118.986 27.6634 118.822 27.6634 118.576C27.6634 118.453 27.6976 118.351 27.7728 118.248L30.9789 113.661L34.096 109.17C34.2601 108.931 34.3763 108.876 34.5677 108.876C34.8001 108.876 35.0052 109.047 35.0052 109.279C35.0052 109.402 34.9779 109.498 34.9027 109.601L31.7923 114.071L28.5794 118.699C28.4291 118.918 28.3197 118.986 28.1283 118.986ZM28.2308 113.887C27.0277 113.887 26.3031 112.93 26.3031 111.385C26.3031 109.847 27.0345 108.896 28.2308 108.896C29.4271 108.896 30.1585 109.84 30.1585 111.385C30.1585 112.923 29.4339 113.887 28.2308 113.887ZM28.2308 113.114C28.8392 113.114 29.1878 112.492 29.1878 111.385C29.1878 110.284 28.8324 109.669 28.2308 109.669C27.6292 109.669 27.2738 110.291 27.2738 111.385C27.2738 112.492 27.6224 113.114 28.2308 113.114ZM34.4378 118.966C33.2347 118.966 32.5101 118.009 32.5101 116.464C32.5101 114.926 33.2416 113.976 34.4378 113.976C35.6341 113.976 36.3656 114.919 36.3656 116.464C36.3656 118.002 35.641 118.966 34.4378 118.966ZM34.4378 118.193C35.0462 118.193 35.3949 117.571 35.3949 116.464C35.3949 115.363 35.0394 114.748 34.4378 114.748C33.8363 114.748 33.4808 115.37 33.4808 116.464C33.4808 117.571 33.8294 118.193 34.4378 118.193Z" fill="white"/>
</svg>
