<svg width="64" height="64" viewBox="0 0 64 64" fill="none" xmlns="http://www.w3.org/2000/svg">
<path d="M52 24.3425V24C52 18.6957 49.8929 13.6086 46.1421 9.85786C42.3914 6.10714 37.3043 4 32 4C26.6957 4 21.6086 6.10714 17.8579 9.85786C14.1071 13.6086 12 18.6957 12 24V24.3425C10.6651 24.814 9.53994 25.7423 8.82342 26.9632C8.1069 28.1842 7.8452 29.6192 8.08458 31.0146C8.32397 32.4099 9.04902 33.6756 10.1315 34.5879C11.2141 35.5003 12.5843 36.0004 14 36H14.8225L28.5275 59.985C28.8774 60.597 29.3829 61.1057 29.9927 61.4595C30.6025 61.8133 31.295 61.9996 32 61.9996C32.705 61.9996 33.3975 61.8133 34.0073 61.4595C34.6171 61.1057 35.1226 60.597 35.4725 59.985L49.1775 36H50C51.4157 36.0004 52.786 35.5003 53.8685 34.5879C54.951 33.6756 55.6761 32.4099 55.9154 31.0146C56.1548 29.6192 55.8931 28.1842 55.1766 26.9632C54.4601 25.7423 53.3349 24.814 52 24.3425ZM19.4275 36H24.2675L34.42 53.765L32 58L19.4275 36ZM33.6975 36L39.135 45.515L36.7225 49.735L28.875 36H33.6975ZM41.4475 41.485L38.3025 36H44.5725L41.4475 41.485ZM50 32H14C13.4696 32 12.9609 31.7893 12.5858 31.4142C12.2107 31.0391 12 30.5304 12 30C12 29.4696 12.2107 28.9609 12.5858 28.5858C12.9609 28.2107 13.4696 28 14 28C14.5304 28 15.0391 27.7893 15.4142 27.4142C15.7893 27.0391 16 26.5304 16 26V24C16 19.7565 17.6857 15.6869 20.6863 12.6863C23.6869 9.68571 27.7565 8 32 8C36.2435 8 40.3131 9.68571 43.3137 12.6863C46.3143 15.6869 48 19.7565 48 24V26C48 26.5304 48.2107 27.0391 48.5858 27.4142C48.9609 27.7893 49.4696 28 50 28C50.5304 28 51.0392 28.2107 51.4142 28.5858C51.7893 28.9609 52 29.4696 52 30C52 30.5304 51.7893 31.0391 51.4142 31.4142C51.0392 31.7893 50.5304 32 50 32Z" fill="#000"/>
</svg>
