<svg width="300" viewBox="0 0 171 31" fill="none" xmlns="http://www.w3.org/2000/svg">
<circle cx="12" cy="16" r="12" fill="#FAF7F0"/>
<path d="M28.28 28V4.48H36.504V8.032H31.736V14.208H34.936V17.76H31.736V28H28.28ZM37.905 28V4.48H41.361C43.4303 4.48 44.9557 5.056 45.937 6.208C46.9183 7.34933 47.409 9.03467 47.409 11.264C47.409 12.5867 47.1743 13.7333 46.705 14.704C46.2463 15.664 45.6863 16.368 45.025 16.816L47.377 28H43.921L41.969 18.08H41.361V28H37.905ZM41.361 14.88C42.001 14.88 42.5077 14.7413 42.881 14.464C43.2543 14.176 43.521 13.7707 43.681 13.248C43.841 12.7253 43.921 12.1067 43.921 11.392C43.921 10.272 43.7343 9.41333 43.361 8.816C42.9983 8.208 42.3317 7.904 41.361 7.904V14.88ZM53.7905 28.256C52.8305 28.256 52.0038 28.032 51.3105 27.584C50.6278 27.136 50.0998 26.528 49.7265 25.76C49.3638 24.992 49.1825 24.128 49.1825 23.168V9.312C49.1825 8.34133 49.3638 7.47733 49.7265 6.72C50.0998 5.952 50.6278 5.344 51.3105 4.896C52.0038 4.448 52.8305 4.224 53.7905 4.224C54.7505 4.224 55.5718 4.448 56.2545 4.896C56.9478 5.344 57.4758 5.952 57.8385 6.72C58.2118 7.488 58.3985 8.352 58.3985 9.312V23.168C58.3985 24.128 58.2118 24.992 57.8385 25.76C57.4758 26.528 56.9478 27.136 56.2545 27.584C55.5718 28.032 54.7505 28.256 53.7905 28.256ZM53.7905 24.896C54.2172 24.896 54.5158 24.72 54.6865 24.368C54.8572 24.0053 54.9425 23.6053 54.9425 23.168V9.312C54.9425 8.87466 54.8518 8.48 54.6705 8.128C54.4892 7.76533 54.1958 7.584 53.7905 7.584C53.3958 7.584 53.1025 7.76533 52.9105 8.128C52.7292 8.48 52.6385 8.87466 52.6385 9.312V23.168C52.6385 23.6053 52.7292 24.0053 52.9105 24.368C53.0918 24.72 53.3852 24.896 53.7905 24.896ZM64.9713 28.256C64.0219 28.256 63.2326 28.1013 62.6033 27.792C61.9739 27.472 61.4779 27.0133 61.1153 26.416C60.7526 25.8187 60.4913 25.0987 60.3313 24.256C60.1819 23.4133 60.1073 22.464 60.1073 21.408L63.4993 21.088C63.4993 21.6 63.5153 22.096 63.5473 22.576C63.5899 23.0453 63.6593 23.472 63.7552 23.856C63.8619 24.2293 64.0113 24.528 64.2033 24.752C64.4059 24.976 64.6619 25.088 64.9713 25.088C65.4833 25.088 65.8459 24.8533 66.0593 24.384C66.2726 23.904 66.3793 23.328 66.3793 22.656C66.3793 21.984 66.2033 21.2853 65.8513 20.56C65.4993 19.8347 65.0779 19.1467 64.5873 18.496C63.7553 17.3867 63.0246 16.3573 62.3953 15.408C61.7766 14.4587 61.2913 13.5253 60.9393 12.608C60.5979 11.6907 60.4273 10.7307 60.4273 9.728C60.4273 8.93867 60.5286 8.21333 60.7313 7.552C60.9339 6.88 61.2273 6.29867 61.6113 5.808C62.0059 5.30667 62.4806 4.91733 63.0353 4.64C63.5899 4.36267 64.2246 4.224 64.9393 4.224C65.8246 4.224 66.5713 4.37333 67.1793 4.672C67.7979 4.97067 68.2939 5.39733 68.6673 5.952C69.0513 6.50667 69.3286 7.168 69.4993 7.936C69.6806 8.69333 69.7713 9.536 69.7713 10.464L66.3793 10.784C66.3793 10.3893 66.3579 9.99467 66.3153 9.6C66.2833 9.19467 66.2193 8.82667 66.1233 8.496C66.0273 8.16533 65.8886 7.89867 65.7073 7.696C65.5259 7.49333 65.2913 7.392 65.0033 7.392C64.5553 7.392 64.2459 7.584 64.0753 7.968C63.9046 8.34133 63.8193 8.87467 63.8193 9.568C63.8193 10.464 64.0593 11.328 64.5393 12.16C65.0193 12.992 65.6646 13.9627 66.4753 15.072C67.4459 16.384 68.2353 17.5893 68.8433 18.688C69.4619 19.7867 69.7713 21.0027 69.7713 22.336C69.7713 23.1787 69.6806 23.9627 69.4993 24.688C69.3179 25.4027 69.0299 26.0267 68.6353 26.56C68.2513 27.0933 67.7553 27.5093 67.1473 27.808C66.5499 28.1067 65.8246 28.256 64.9713 28.256ZM73.9278 28V8.032H70.6638V4.48H80.6478V8.032H77.3838V28H73.9278ZM81.6728 12.192L82.7928 8.032H81.6728V4.48H85.0328V8.032L83.2728 12.192H81.6728ZM87.0925 28V4.48H90.6125C91.7218 4.48 92.6605 4.66133 93.4285 5.024C94.1965 5.38667 94.8152 6.00533 95.2845 6.88C95.7538 7.75467 96.0898 8.95467 96.2925 10.48C96.5058 12.0053 96.6125 13.9307 96.6125 16.256C96.6125 18.592 96.5058 20.5227 96.2925 22.048C96.0898 23.5627 95.7538 24.7573 95.2845 25.632C94.8152 26.496 94.1965 27.1093 93.4285 27.472C92.6605 27.824 91.7218 28 90.6125 28H87.0925ZM90.5485 24.544C91.4018 24.544 92.0045 24.208 92.3565 23.536C92.7085 22.864 92.9218 21.904 92.9965 20.656C93.0712 19.408 93.1085 17.9253 93.1085 16.208C93.1085 14.4693 93.0712 12.9867 92.9965 11.76C92.9218 10.5227 92.7032 9.57867 92.3405 8.928C91.9885 8.26667 91.3912 7.936 90.5485 7.936V24.544ZM106.24 28V8.032H102.976V4.48H112.96V8.032H109.696V28H106.24ZM119.009 28.256C118.049 28.256 117.223 28.032 116.529 27.584C115.847 27.136 115.319 26.528 114.945 25.76C114.583 24.992 114.401 24.128 114.401 23.168V9.312C114.401 8.34133 114.583 7.47733 114.945 6.72C115.319 5.952 115.847 5.344 116.529 4.896C117.223 4.448 118.049 4.224 119.009 4.224C119.969 4.224 120.791 4.448 121.473 4.896C122.167 5.344 122.695 5.952 123.057 6.72C123.431 7.488 123.617 8.352 123.617 9.312V23.168C123.617 24.128 123.431 24.992 123.057 25.76C122.695 26.528 122.167 27.136 121.473 27.584C120.791 28.032 119.969 28.256 119.009 28.256ZM119.009 24.896C119.436 24.896 119.735 24.72 119.905 24.368C120.076 24.0053 120.161 23.6053 120.161 23.168V9.312C120.161 8.87466 120.071 8.48 119.889 8.128C119.708 7.76533 119.415 7.584 119.009 7.584C118.615 7.584 118.321 7.76533 118.129 8.128C117.948 8.48 117.857 8.87466 117.857 9.312V23.168C117.857 23.6053 117.948 24.0053 118.129 24.368C118.311 24.72 118.604 24.896 119.009 24.896ZM126.03 28V4.48H129.486V12.32V12.704H129.614L129.774 12.32L132.462 4.48H136.014L132.846 12.224L136.43 28H132.878L130.574 17.28H130.478L129.486 19.68V28H126.03ZM138.03 28V4.48H145.934V8.032H141.486V14.368H144.686V17.824H141.486V24.448H145.934V28H138.03ZM148.499 28V4.48H151.731L154.931 16.736L155.219 17.824H155.411V4.48H158.579V28H155.667L152.147 15.744L151.859 14.656H151.667V28H148.499ZM165.284 28.256C164.334 28.256 163.545 28.1013 162.916 27.792C162.286 27.472 161.79 27.0133 161.428 26.416C161.065 25.8187 160.804 25.0987 160.644 24.256C160.494 23.4133 160.42 22.464 160.42 21.408L163.812 21.088C163.812 21.6 163.828 22.096 163.86 22.576C163.902 23.0453 163.972 23.472 164.068 23.856C164.174 24.2293 164.324 24.528 164.516 24.752C164.718 24.976 164.974 25.088 165.284 25.088C165.796 25.088 166.158 24.8533 166.372 24.384C166.585 23.904 166.692 23.328 166.692 22.656C166.692 21.984 166.516 21.2853 166.164 20.56C165.812 19.8347 165.39 19.1467 164.9 18.496C164.068 17.3867 163.337 16.3573 162.708 15.408C162.089 14.4587 161.604 13.5253 161.252 12.608C160.91 11.6907 160.74 10.7307 160.74 9.728C160.74 8.93867 160.841 8.21333 161.044 7.552C161.246 6.88 161.54 6.29867 161.924 5.808C162.318 5.30667 162.793 4.91733 163.348 4.64C163.902 4.36267 164.537 4.224 165.252 4.224C166.137 4.224 166.884 4.37333 167.492 4.672C168.11 4.97067 168.606 5.39733 168.98 5.952C169.364 6.50667 169.641 7.168 169.812 7.936C169.993 8.69333 170.084 9.536 170.084 10.464L166.692 10.784C166.692 10.3893 166.67 9.99467 166.628 9.6C166.596 9.19467 166.532 8.82667 166.436 8.496C166.34 8.16533 166.201 7.89867 166.02 7.696C165.838 7.49333 165.604 7.392 165.316 7.392C164.868 7.392 164.558 7.584 164.388 7.968C164.217 8.34133 164.132 8.87467 164.132 9.568C164.132 10.464 164.372 11.328 164.852 12.16C165.332 12.992 165.977 13.9627 166.788 15.072C167.758 16.384 168.548 17.5893 169.156 18.688C169.774 19.7867 170.084 21.0027 170.084 22.336C170.084 23.1787 169.993 23.9627 169.812 24.688C169.63 25.4027 169.342 26.0267 168.948 26.56C168.564 27.0933 168.068 27.5093 167.46 27.808C166.862 28.1067 166.137 28.256 165.284 28.256Z" fill="#A6154F"/>
<path d="M11.6989 25.9285C11.4601 25.783 11.4525 25.738 11.4525 24.4827C11.4525 23.8584 11.4389 23.3474 11.4222 23.3474C11.4056 23.3474 11.2429 23.4982 11.0605 23.6824C10.8781 23.8667 10.6814 24.0425 10.6233 24.0732C10.3636 24.2105 10.0274 24.0749 9.93423 23.7954C9.84111 23.516 9.89217 23.4387 10.7084 22.6247L11.4525 21.8825V19.8973L11.2604 20.077C11.1546 20.1757 11.0225 20.268 10.9667 20.282C10.6714 20.3561 10.3574 20.1213 10.3574 19.8265C10.3574 19.7402 10.3826 19.6221 10.4133 19.5641C10.4441 19.506 10.6905 19.2389 10.9609 18.9706L11.4525 18.4826V17.9056C11.4525 17.5882 11.4371 17.3285 11.4184 17.3285C11.3996 17.3285 10.9332 17.7863 10.3819 18.3457L9.37965 19.3628L9.37959 20.8763C9.37947 22.288 9.37448 22.3979 9.30599 22.5102C9.22856 22.637 9.01461 22.7611 8.87322 22.7611C8.74723 22.7611 8.5747 22.6593 8.48327 22.5309C8.4059 22.4223 8.402 22.367 8.402 21.388V20.3591L8.04917 20.71L7.69628 21.061L7.6993 22.1195C7.70145 22.8777 7.68867 23.2078 7.65434 23.2832C7.54426 23.5245 7.14652 23.6236 6.93984 23.4611C6.74739 23.3099 6.72026 23.2031 6.72026 22.5975V22.0391L6.16295 22.5913C5.85641 22.895 5.56718 23.163 5.52019 23.1868C5.47325 23.2107 5.363 23.2301 5.27523 23.2301C5.14801 23.2301 5.08597 23.2029 4.96956 23.0963C4.83439 22.9726 4.82347 22.9463 4.82347 22.7451V22.5276L5.38078 21.9697C5.68726 21.6628 5.93808 21.3988 5.93808 21.3829C5.93808 21.3671 5.71723 21.3541 5.44729 21.3541C4.91409 21.3541 4.7986 21.3222 4.65088 21.1346C4.5512 21.008 4.54295 20.7657 4.63322 20.6131C4.76747 20.3859 4.81673 20.377 5.93936 20.377H6.96499L7.31196 20.0377C7.50278 19.8512 7.65892 19.6862 7.65892 19.6714C7.65892 19.6564 7.19578 19.6368 6.62976 19.6276C5.63468 19.6116 5.59646 19.608 5.47546 19.5219C5.23683 19.3522 5.17177 19.0922 5.31072 18.8644C5.46866 18.6056 5.46681 18.6058 7.16737 18.6361L8.6953 18.6634L9.75101 17.6051L10.8067 16.5469H9.46928L8.96158 17.0709C8.5768 17.4679 8.41914 17.6045 8.31057 17.6344C7.93706 17.7374 7.59979 17.4089 7.70139 17.0411C7.72155 16.9682 7.80972 16.8271 7.89732 16.7276L8.05666 16.5469H6.06286L5.35196 17.2867C4.64798 18.0193 4.53151 18.1101 4.29538 18.1101C4.13214 18.1101 3.9311 17.9531 3.87446 17.7816C3.79401 17.5377 3.85709 17.4081 4.27737 16.9546L4.65524 16.5469H3.55503C2.3718 16.5469 2.29129 16.5353 2.11185 16.3408C1.91237 16.1244 1.98975 15.7491 2.26416 15.602C2.38418 15.5377 2.50686 15.5307 3.50042 15.5307H4.60348L4.23996 15.1691C3.86267 14.7939 3.79708 14.6712 3.85093 14.4423C3.88509 14.2969 4.05216 14.1296 4.20522 14.0875C4.4729 14.0137 4.57717 14.0825 5.33407 14.8315L6.04026 15.5307H7.98086L7.83941 15.3742C7.49732 14.9959 7.75843 14.4598 8.2526 14.5261C8.39712 14.5454 8.46805 14.601 8.9075 15.0393L9.40033 15.5307H10.7676L9.69252 14.4558L8.61757 13.381H7.1076C5.60018 13.381 5.59739 13.3809 5.46471 13.2919C5.30764 13.1864 5.20749 12.945 5.25019 12.7749C5.26576 12.7129 5.34011 12.6041 5.41551 12.5331L5.55249 12.4039H7.63766L7.28727 12.0522L6.93693 11.7004H5.86663C4.84548 11.7004 4.79111 11.6967 4.68219 11.6191C4.55376 11.5279 4.45187 11.3553 4.45187 11.2294C4.45187 11.0865 4.57147 10.8846 4.70508 10.8021C4.81748 10.7327 4.89939 10.7233 5.3946 10.7233H5.95656L5.40395 10.1665C5.10003 9.86007 4.83189 9.57098 4.80801 9.52403C4.7842 9.47707 4.76474 9.36693 4.76474 9.27928C4.76474 9.15223 4.79192 9.09008 4.89858 8.9737C5.02248 8.83864 5.04874 8.82776 5.25007 8.82776H5.46768L6.02597 9.38476C6.33303 9.69099 6.59728 9.94159 6.61314 9.94159C6.629 9.94159 6.64195 9.71137 6.64195 9.42981C6.64195 8.85432 6.67977 8.73754 6.90039 8.63295C7.14507 8.51692 7.4042 8.59229 7.54309 8.81993C7.61362 8.93549 7.61942 9.02243 7.6196 9.96196L7.61966 10.9791L7.96262 11.3201C8.15129 11.5078 8.31679 11.6613 8.33038 11.6613C8.34397 11.6613 8.36123 11.1988 8.36872 10.6336C8.38074 9.72327 8.39033 9.59356 8.45289 9.49831C8.53962 9.36621 8.742 9.23853 8.86527 9.23824C9.01624 9.23795 9.21665 9.35523 9.30233 9.49372C9.38116 9.62118 9.38226 9.65561 9.35752 11.1605L9.33225 12.6971L10.3923 13.752L11.4525 14.8071V13.5065L10.9606 13.0453C10.4341 12.5517 10.3574 12.4476 10.3574 12.2281C10.3574 11.9344 10.5559 11.7395 10.8551 11.7395C11.0141 11.7395 11.1201 11.7954 11.3253 11.9875L11.4525 12.1066V10.1155L10.7234 9.41466C10.2753 8.98375 9.9728 8.66161 9.93812 8.57873C9.78534 8.21347 10.1182 7.82646 10.5104 7.91352C10.6066 7.93477 10.749 8.04778 11.0195 8.31703C11.2261 8.52268 11.408 8.69106 11.4238 8.69106C11.4395 8.69106 11.4525 8.16769 11.4526 7.52818C11.4526 6.44407 11.4578 6.35699 11.529 6.24033C11.7204 5.92666 12.131 5.91865 12.3489 6.22442C12.4268 6.33377 12.4302 6.38672 12.4302 7.49521C12.4302 8.1313 12.443 8.65199 12.4588 8.65199C12.4745 8.65199 12.6476 8.49232 12.8435 8.29741C13.2414 7.90139 13.3665 7.84312 13.6263 7.93227C13.8828 8.0205 14.0073 8.27887 13.9203 8.54216C13.8917 8.62835 13.634 8.91509 13.1538 9.39446L12.4302 10.1168V12.0583L12.5953 11.9169C12.7877 11.7524 12.8827 11.7217 13.1071 11.7518C13.4725 11.8007 13.6133 12.2209 13.3729 12.5446C13.3107 12.6285 13.0731 12.8814 12.845 13.1067L12.4302 13.5164V14.8852L14.5811 12.7367V11.2008C14.5811 9.75534 14.5857 9.65613 14.6574 9.51555C14.7357 9.36238 14.9282 9.23824 15.0876 9.23824C15.2177 9.23824 15.3871 9.34142 15.4874 9.48182C15.5765 9.60661 15.5788 9.6325 15.5906 10.6549C15.5972 11.2298 15.6145 11.7004 15.629 11.7004C15.6434 11.7004 15.8095 11.5469 15.9982 11.3592L16.3411 11.0181V10.007C16.3411 8.87547 16.3555 8.79999 16.6021 8.64781C16.8549 8.49167 17.1761 8.61366 17.3043 8.91443C17.34 8.99807 17.358 9.20085 17.358 9.51973V9.99929L18.5322 8.82776H18.7499C18.9513 8.82776 18.9774 8.83864 19.1014 8.9737C19.2081 9.09008 19.2353 9.15223 19.2353 9.27928C19.2353 9.36693 19.2158 9.47707 19.192 9.52403C19.1681 9.57098 18.9026 9.8574 18.6021 10.1604L18.0556 10.7111L18.4168 10.7368C18.6155 10.7508 18.8553 10.7624 18.9499 10.7624C19.1666 10.7624 19.3345 10.848 19.4323 11.0086C19.5757 11.2436 19.4933 11.5532 19.2467 11.7055C19.1125 11.7884 19.0913 11.7895 18.0678 11.7627L17.0255 11.7355L16.694 12.0697L16.3624 12.4039H17.383C18.3585 12.4039 18.408 12.4075 18.5072 12.4855C18.7292 12.6601 18.7874 12.9416 18.648 13.1671C18.4938 13.4162 18.4663 13.4201 16.8238 13.4201H15.3433L14.2879 14.4754L13.2325 15.5307H14.5628L15.0121 15.0784C15.2591 14.8297 15.5087 14.6011 15.5668 14.5704C15.9177 14.3846 16.3561 14.7024 16.2834 15.0898C16.2697 15.1629 16.1958 15.292 16.1192 15.3767L15.9801 15.5307H17.9151L18.6507 14.8251C19.1441 14.3518 19.4282 14.1078 19.5138 14.0832C19.7815 14.0065 20.0565 14.1687 20.1156 14.4381C20.166 14.6677 20.1005 14.7926 19.7315 15.1691L19.3773 15.5307H20.4899C21.4929 15.5307 21.6158 15.5377 21.7358 15.602C22.0102 15.7491 22.0877 16.1244 21.8881 16.3408C21.7083 16.5358 21.6299 16.5469 20.4233 16.5469H19.3013L19.6957 16.9519C20.123 17.3908 20.1833 17.513 20.0984 17.7697C20.0149 18.0221 19.7987 18.1438 19.5244 18.0924C19.4073 18.0705 19.2598 17.9394 18.6393 17.3064L17.8945 16.5469H15.8947L16.0598 16.715C16.2422 16.9007 16.3144 17.0865 16.2783 17.2782C16.2308 17.5317 15.927 17.7108 15.6665 17.6388C15.58 17.6148 15.3706 17.4345 15.0119 17.0752L14.4845 16.5469H13.1934L14.2293 17.5825L15.265 18.6183H16.8142C18.3619 18.6183 18.3634 18.6183 18.4956 18.7074C18.7294 18.8648 18.7918 19.1171 18.6531 19.3444C18.5109 19.5774 18.4147 19.5953 17.3033 19.5953C16.7526 19.5953 16.302 19.6081 16.302 19.6239C16.302 19.6395 16.4557 19.8067 16.6434 19.9952L16.9849 20.3379L18.0025 20.338C18.9421 20.3381 19.0297 20.344 19.1452 20.4143C19.3162 20.5185 19.4024 20.6631 19.4024 20.846C19.4024 21.0288 19.3162 21.1733 19.1452 21.2776C19.0382 21.3427 18.9466 21.3538 18.5123 21.3539L18.0043 21.354L18.5905 21.9407L19.1765 22.5275V22.7449C19.1765 22.9462 19.1657 22.9724 19.0305 23.0962C18.9141 23.2028 18.8521 23.23 18.7248 23.23C18.637 23.23 18.5268 23.2105 18.4798 23.1867C18.4328 23.1629 18.1463 22.8975 17.8431 22.5971L17.2917 22.0509L17.2664 22.318C17.2526 22.4649 17.2411 22.7047 17.2409 22.8509C17.2407 23.1409 17.1807 23.3007 17.0368 23.3949C16.7998 23.5502 16.5057 23.5 16.3469 23.2772C16.2659 23.1635 16.2629 23.1212 16.2629 22.0896V21.02L15.9395 20.6985C15.7615 20.5216 15.6075 20.3769 15.5972 20.3769C15.587 20.3769 15.5785 20.8298 15.5785 21.3833C15.5785 22.3743 15.5772 22.3916 15.4875 22.5173C15.318 22.7547 15.0934 22.8161 14.8574 22.6895C14.5831 22.5426 14.5811 22.5296 14.5811 20.8462V19.3406L13.5348 18.2954C12.9592 17.7206 12.4753 17.2502 12.4592 17.2502C12.4433 17.2502 12.4302 17.5364 12.4302 17.886V18.5217L12.9022 18.9901C13.1618 19.2476 13.3995 19.5059 13.4303 19.564C13.5595 19.8078 13.4596 20.1476 13.2306 20.2432C12.9864 20.3451 12.7847 20.2961 12.5896 20.0875C12.5374 20.0317 12.4802 19.9861 12.4625 19.9861C12.4448 19.9861 12.4302 20.4204 12.4302 20.951V21.916L13.1515 22.6414C13.5482 23.0403 13.8923 23.4188 13.9163 23.4823C14.0287 23.7815 13.796 24.129 13.4828 24.129C13.2643 24.129 13.1604 24.0636 12.8027 23.7019C12.6311 23.5283 12.477 23.3864 12.4604 23.3864C12.4437 23.3864 12.4302 23.8982 12.4302 24.5235C12.4302 25.6122 12.4267 25.6655 12.3489 25.7748C12.1868 26.0022 11.9225 26.0648 11.6989 25.9285Z" fill="#A6154F"/>
</svg>
